<svg width="24" height="30" viewBox="0 0 24 30" fill="none" xmlns="http://www.w3.org/2000/svg">
<g id="Group 107">
<path id="Vector-3" d="M9.69446 14.5534C9.12809 14.0362 8.24966 14.076 7.73242 14.6424C7.21518 15.2087 7.25501 16.0871 7.82137 16.6044L9.69446 14.5534ZM11.2014 19.6912C11.7677 20.2085 12.6462 20.1686 13.1634 19.6023C13.6806 19.0359 13.6408 18.1575 13.0745 17.6402L11.2014 19.6912ZM7.82137 20.727C7.25501 21.2442 7.21518 22.1227 7.73242 22.689C8.24966 23.2554 9.12809 23.2952 9.69446 22.778L7.82137 20.727ZM13.0745 19.6912C13.6408 19.1739 13.6806 18.2955 13.1634 17.7291C12.6462 17.1628 11.7677 17.1229 11.2014 17.6402L13.0745 19.6912ZM16.4544 16.6044C17.0208 16.0871 17.0606 15.2087 16.5433 14.6424C16.0261 14.076 15.1477 14.0362 14.5813 14.5534L16.4544 16.6044ZM11.2013 17.6402C10.635 18.1575 10.5951 19.0359 11.1124 19.6023C11.6296 20.1686 12.508 20.2085 13.0744 19.6912L11.2013 17.6402ZM14.5813 22.778C15.1477 23.2952 16.0261 23.2554 16.5433 22.689C17.0606 22.1227 17.0208 21.2442 16.4544 20.727L14.5813 22.778ZM13.0744 17.6402C12.508 17.1229 11.6296 17.1628 11.1124 17.7291C10.5951 18.2955 10.635 19.1739 11.2013 19.6912L13.0744 17.6402ZM15.7106 3.38879C16.4776 3.38879 17.0994 2.76701 17.0994 2C17.0994 1.23299 16.4776 0.611207 15.7106 0.611207V3.38879ZM8.95262 0.611207C8.18561 0.611207 7.56383 1.23299 7.56383 2C7.56383 2.76701 8.18561 3.38879 8.95262 3.38879V0.611207ZM22.2759 7.09223C23.0429 7.09223 23.6647 6.47045 23.6647 5.70344C23.6647 4.93643 23.0429 4.31464 22.2759 4.31464V7.09223ZM2 4.31464C1.23299 4.31464 0.611207 4.93643 0.611207 5.70344C0.611207 6.47045 1.23299 7.09223 2 7.09223V4.31464ZM3.48467 26.5684L2.54813 27.5939H2.54813L3.48467 26.5684ZM2 23.295H3.38879H2ZM7.82137 16.6044L11.2014 19.6912L13.0745 17.6402L9.69446 14.5534L7.82137 16.6044ZM9.69446 22.778L13.0745 19.6912L11.2014 17.6402L7.82137 20.727L9.69446 22.778ZM14.5813 14.5534L11.2013 17.6402L13.0744 19.6912L16.4544 16.6044L14.5813 14.5534ZM16.4544 20.727L13.0744 17.6402L11.2013 19.6912L14.5813 22.778L16.4544 20.727ZM15.7106 0.611207H8.95262V3.38879H15.7106V0.611207ZM22.2759 4.31464H2V7.09223H22.2759V4.31464ZM3.68898 10.7959H20.5869V8.0183H3.68898V10.7959ZM20.5869 10.7959C20.7096 10.7959 20.797 10.8409 20.8447 10.8844C20.868 10.9056 20.8787 10.9235 20.883 10.9328C20.8866 10.9406 20.8871 10.9449 20.8871 10.9496H23.6647C23.6647 9.21476 22.1655 8.0183 20.5869 8.0183V10.7959ZM20.8871 10.9496V23.295H23.6647V10.9496H20.8871ZM20.8871 23.295C20.8871 24.9688 19.3607 26.5355 17.2069 26.5355V29.3131C20.6522 29.3131 23.6647 26.7346 23.6647 23.295H20.8871ZM17.2069 26.5355H7.06898V29.3131H17.2069V26.5355ZM7.06898 26.5355C6.05432 26.5355 5.10373 26.1663 4.42121 25.5429L2.54813 27.5939C3.76684 28.7069 5.39489 29.3131 7.06898 29.3131V26.5355ZM4.42121 25.5429C3.7429 24.9235 3.38879 24.1117 3.38879 23.295H0.611207C0.611207 24.9339 1.3252 26.4771 2.54813 27.5939L4.42121 25.5429ZM3.38879 23.295V10.9496H0.611207V23.295H3.38879ZM3.38879 10.9496C3.38879 10.9449 3.38931 10.9406 3.39293 10.9328C3.39723 10.9235 3.40793 10.9056 3.43124 10.8844C3.47888 10.8409 3.56632 10.7959 3.68898 10.7959V8.0183C2.11046 8.0183 0.611207 9.21476 0.611207 10.9496H3.38879Z" fill="#FF0000"/>
</g>
</svg>
