<svg width="226" height="198" viewBox="0 0 226 198" fill="none" xmlns="http://www.w3.org/2000/svg">
<g opacity="0.8">
<path d="M124.372 11.7351C124.372 11.7351 105.623 53.8166 56.0401 44.1765C6.45759 34.5364 -23.4158 102.359 23.4603 127.088C70.3364 151.817 37.8501 180.226 69.1132 194.737C104.646 211.229 117.896 156.081 144.074 161.203C201.848 172.507 237.586 153.12 221.783 127.03C194.044 81.2327 173.903 82.9187 182.088 53.3438C190.273 23.769 144.05 -21.6335 124.372 11.7351Z" fill="#FAA613"/>
<path d="M115.321 107.78C110.965 116.129 109.866 120.567 96.6504 128.852C96.5477 128.919 96.4708 129.018 96.4321 129.135C94.3208 135.68 90.7468 141.659 85.9813 146.617C85.9171 146.683 85.8719 146.766 85.8506 146.855C85.8292 146.945 85.8325 147.039 85.86 147.126C87.3391 152.049 88.94 160.924 84.4859 168.198C77.939 178.908 73.0899 172.442 74.0997 170.017C74.9645 167.939 82.3522 163.478 80.6467 152.332C80.6324 152.243 80.5953 152.159 80.5391 152.088C80.4829 152.017 80.4095 151.962 80.3258 151.928C80.2422 151.894 80.1512 151.882 80.0616 151.893C79.9719 151.904 79.8867 151.939 79.8141 151.992C74.4593 155.879 68.3134 158.537 61.814 159.776C61.7419 159.788 61.6731 159.815 61.6121 159.856C61.5512 159.896 61.4995 159.949 61.4605 160.011C61.4216 160.073 61.3962 160.142 61.386 160.215C61.3759 160.287 61.3813 160.361 61.4017 160.431C63.0588 166.364 63.8428 175.635 56.924 184.162C53.2302 188.607 48.332 182.109 53.2302 177.68C56.2692 174.94 56.0349 167.059 54.6123 160.989C54.5851 160.871 54.5179 160.767 54.422 160.693C54.3262 160.619 54.2077 160.581 54.0869 160.585C53.8041 160.593 53.5129 160.593 53.2302 160.593C43.2328 160.608 33.5131 157.304 25.5955 151.2C25.5231 151.144 25.4371 151.107 25.3462 151.093C25.2552 151.08 25.1624 151.091 25.0768 151.124C24.9911 151.158 24.9157 151.213 24.8578 151.284C24.8 151.356 24.7617 151.441 24.7468 151.532C22.8473 164.076 30.3888 168.416 31.4634 171.633C32.6597 175.23 29.9115 178.431 26.5249 177.526C26.4515 177.504 26.383 177.468 26.3229 177.42C15.282 169.128 16.2438 151.75 17.4562 143.384C17.4673 143.316 17.4636 143.246 17.4455 143.179C17.4273 143.112 17.3951 143.05 17.351 142.996C11.1767 135.051 7.83402 125.27 7.85385 115.208C7.85385 96.7552 18.8706 80.8726 34.6885 73.7841L34.6916 73.7836L34.6943 73.7819L34.696 73.7792L34.6966 73.7761C37.1294 70.6961 40.0958 66.34 40.5486 63.2848C40.5635 63.1813 40.609 63.0846 40.6791 63.007C40.7493 62.9295 40.841 62.8746 40.9425 62.8494C41.044 62.8243 41.1507 62.8299 41.249 62.8657C41.3472 62.9015 41.4326 62.9658 41.4942 63.0503C42.6581 64.6183 44.4606 67.609 44.0646 70.7612C44.0483 70.8662 44.0404 70.9712 44.0241 71.0764C43.9918 71.2543 43.9514 71.424 43.911 71.6018C43.8705 71.7393 43.8382 71.8766 43.7897 72.0141C44.355 71.5424 44.8944 71.0405 45.4055 70.5106C46.5935 69.2902 48.097 67.4554 48.7436 65.4913C48.7742 65.3866 48.8365 65.2938 48.922 65.2259C49.0075 65.158 49.1119 65.1182 49.2209 65.1121C49.3298 65.106 49.4381 65.1337 49.5306 65.1916C49.6231 65.2495 49.6955 65.3347 49.7376 65.4354C50.1576 66.47 50.651 67.9167 50.8207 69.3958C50.8353 69.5285 50.899 69.6509 50.9991 69.7391C51.0993 69.8273 51.2288 69.8749 51.3622 69.8727C51.9846 69.8484 52.6069 69.8323 53.2294 69.8323C78.2937 69.8323 98.6137 90.1522 98.6137 115.209C98.6137 115.783 98.6056 116.348 98.5813 116.914C98.5777 117 98.5953 117.086 98.6324 117.164C98.6695 117.242 98.7251 117.31 98.7944 117.362C98.8636 117.414 98.9445 117.448 99.0299 117.461C99.1152 117.475 99.2027 117.467 99.2845 117.439C101.984 116.494 105.387 114.214 107.44 108.791C111.279 98.6875 111.683 95.8586 110.471 87.9779C109.259 80.0971 115.119 80.5019 116.331 83.1283C117.543 85.7547 120.171 98.4849 115.321 107.78Z" fill="black"/>
<path d="M35.5038 119.189C35.3492 119.188 35.199 119.137 35.0767 119.043C34.9543 118.948 34.8667 118.816 34.8274 118.666C34.5227 117.335 34.4572 115.96 34.6341 114.606C35.0321 111.663 36.6337 109.5 39.2659 108.35C40.9859 107.599 42.6119 107.555 44.0984 108.222C47.1452 109.587 48.4423 113.459 48.4961 113.623C48.5482 113.798 48.53 113.987 48.4454 114.148C48.3608 114.31 48.2164 114.432 48.0431 114.489C47.8697 114.545 47.6811 114.532 47.5173 114.452C47.3535 114.372 47.2274 114.231 47.1661 114.059C47.155 114.025 46.0013 110.605 43.5216 109.497C42.4114 109.002 41.1683 109.047 39.8267 109.633C37.6487 110.585 36.3705 112.307 36.0278 114.752C35.8712 115.939 35.9236 117.144 36.1826 118.313C36.2292 118.492 36.2026 118.683 36.1087 118.843C36.0147 119.003 35.8611 119.12 35.6814 119.167C35.6234 119.181 35.5637 119.189 35.5038 119.189Z" fill="white"/>
<path d="M56.6053 112.778C56.4586 112.778 56.3157 112.732 56.1966 112.646C56.0776 112.56 55.9885 112.439 55.942 112.3C55.5513 110.997 55.3967 109.635 55.4855 108.278C55.692 105.327 57.1503 103.074 59.7026 101.76C61.3737 100.9 62.9957 100.752 64.5247 101.322C67.6467 102.484 69.1897 106.239 69.2539 106.398C69.3212 106.57 69.3179 106.761 69.2449 106.931C69.1718 107.1 69.0348 107.234 68.8637 107.303C68.6926 107.372 68.5012 107.37 68.3311 107.299C68.161 107.227 68.0259 107.092 67.9554 106.921C67.9414 106.889 66.5723 103.574 64.031 102.632C62.8881 102.208 61.6477 102.334 60.3434 103.005C58.2321 104.092 57.0687 105.884 56.8854 108.334C56.8063 109.522 56.9366 110.714 57.2703 111.857C57.305 111.963 57.3143 112.075 57.2974 112.184C57.2804 112.294 57.2378 112.398 57.1729 112.487C57.1081 112.577 57.0228 112.65 56.9242 112.701C56.8256 112.752 56.7164 112.778 56.6056 112.778H56.6053Z" fill="white"/>
<path d="M54.8242 127.423C50.0598 127.423 46.4271 124.252 46.2452 124.091C46.1765 124.029 46.1205 123.956 46.0803 123.873C46.0401 123.79 46.0167 123.7 46.0112 123.609C46.0058 123.517 46.0185 123.425 46.0486 123.338C46.0786 123.251 46.1255 123.171 46.1866 123.102C46.2476 123.034 46.3216 122.977 46.4043 122.937C46.487 122.897 46.5768 122.874 46.6686 122.868C46.7603 122.863 46.8523 122.876 46.9391 122.906C47.026 122.936 47.1061 122.983 47.1748 123.044C47.2226 123.086 52.0198 127.255 57.421 125.645C62.797 124.043 64.2714 117.217 64.2858 117.149C64.325 116.969 64.4337 116.811 64.5881 116.711C64.7426 116.61 64.9304 116.575 65.1109 116.612C65.2914 116.649 65.4499 116.756 65.5521 116.909C65.6544 117.063 65.692 117.25 65.657 117.431C65.3241 118.845 64.8028 120.208 64.107 121.483C62.5701 124.316 60.397 126.22 57.821 126.987C56.8485 127.277 55.839 127.424 54.8242 127.423Z" fill="white"/>
<path d="M205.719 96.2656C205.659 97.7855 205.505 99.3002 205.257 100.801C201.882 121.445 182.42 135.438 161.776 132.063C141.14 128.69 127.139 109.227 130.514 88.5824C130.729 87.2664 131.014 85.9784 131.35 84.7224C116.039 74.3246 116.934 54.2742 119.869 52.0512C122.833 49.8003 126.069 51.697 125.731 57.9235C125.383 66.9657 130.95 74.4436 134.038 77.7007C141.267 63.2886 157.244 54.5817 173.995 57.3201C190.252 59.9775 202.379 72.6152 205.156 87.9421C208.186 86.8404 213.538 83.6612 217.874 74.6239C218.479 72.8228 218.647 71.4988 218.679 70.7014C218.7 69.9564 218.991 69.2446 219.497 68.6977C220.446 67.706 222.125 66.6537 224.293 68.2696C224.786 68.6382 225.184 69.1198 225.452 69.6739C225.721 70.228 225.853 70.8383 225.837 71.4539C225.701 76.338 221.792 88.2215 205.719 96.2656Z" fill="black"/>
<path d="M183.199 102.961C182.243 108.808 174.201 112.359 165.243 110.894C156.277 109.429 149.785 103.502 150.741 97.6555C150.923 96.5667 151.348 95.533 151.985 94.6315C152.16 94.3875 152.421 94.2195 152.715 94.1622C153.009 94.1049 153.314 94.1627 153.567 94.3235C156.777 96.333 161.857 98.1049 167.718 99.0631C173.112 99.9451 178.104 99.9583 181.737 99.269C182.033 99.2123 182.339 99.2716 182.592 99.4345C182.846 99.5975 183.027 99.8516 183.098 100.144C183.316 101.068 183.351 102.025 183.199 102.961Z" fill="white"/>
<path d="M166.201 91.3599C166.099 91.36 165.999 91.338 165.906 91.2955C165.814 91.2529 165.732 91.1908 165.667 91.1135C165.601 91.0361 165.552 90.9454 165.525 90.8476C165.498 90.7497 165.492 90.6471 165.509 90.5469C165.744 89.1096 165.398 87.6378 164.548 86.4553C163.698 85.2728 162.413 84.4765 160.975 84.2416C159.538 84.0066 158.066 84.3523 156.884 85.2025C155.701 86.0527 154.905 87.3378 154.67 88.7752C154.64 88.9584 154.538 89.1222 154.388 89.2306C154.237 89.339 154.049 89.383 153.866 89.353C153.683 89.3231 153.519 89.2216 153.411 89.0708C153.302 88.9201 153.258 88.7324 153.288 88.5492C153.583 86.7455 154.582 85.1327 156.066 84.0657C157.55 82.9988 159.397 82.565 161.201 82.8598C163.005 83.1547 164.618 84.154 165.685 85.638C166.752 87.1219 167.185 88.9689 166.89 90.7727C166.864 90.9365 166.78 91.0854 166.653 91.1929C166.527 91.3005 166.366 91.3597 166.201 91.3599Z" fill="white"/>
<path d="M182.992 94.1048C182.891 94.1047 182.791 94.0826 182.699 94.0399C182.606 93.9973 182.525 93.9352 182.459 93.8579C182.393 93.7805 182.345 93.6899 182.318 93.5921C182.29 93.4944 182.285 93.3919 182.301 93.2917C182.53 91.8569 182.181 90.3899 181.331 89.2118C180.48 88.0337 179.198 87.2407 177.764 87.0063C176.33 86.7719 174.862 87.1153 173.681 87.9613C172.499 88.8073 171.702 90.087 171.462 91.52C171.447 91.6109 171.415 91.6981 171.367 91.7765C171.318 91.855 171.255 91.9231 171.18 91.977C171.106 92.0309 171.021 92.0695 170.931 92.0906C170.842 92.1118 170.749 92.115 170.658 92.1001C170.567 92.0853 170.48 92.0526 170.402 92.004C170.323 91.9555 170.255 91.8919 170.202 91.817C170.148 91.7421 170.11 91.6574 170.089 91.5677C170.068 91.478 170.065 91.385 170.08 91.2941C170.38 89.495 171.381 87.888 172.864 86.8256C174.346 85.7631 176.19 85.3317 177.99 85.6259C179.79 85.9202 181.4 86.9161 182.467 88.3954C183.534 89.8746 183.971 91.7166 183.682 93.5176C183.656 93.6814 183.572 93.8304 183.445 93.9379C183.319 94.0454 183.158 94.1046 182.992 94.1048Z" fill="white"/>
</g>
</svg>
