<svg width="396" height="338" viewBox="0 0 396 338" fill="none" xmlns="http://www.w3.org/2000/svg">
<path d="M267.889 14.1485C267.889 14.1485 213.722 82.7593 127.056 41.8335C40.3896 0.907634 -46.277 111.648 28.3524 179.055C102.982 246.462 29.9514 283.502 80.6517 324.814C138.276 371.767 188.445 276.555 234.185 298.222C335.137 346.041 409.925 327.11 393.074 271.74C363.492 174.545 325.666 168.222 354.555 117.667C383.444 67.1112 319.686 -38.006 267.889 14.1485Z" fill="#FAA613"/>
<path d="M238.398 203.908L234.119 226.882L213.737 336.095L177.021 329.24L200.563 203.079L201.682 197.068L238.398 203.908Z" fill="#424242"/>
<path d="M328.822 148.965L316.162 216.84C316.124 217.039 316.049 217.228 315.938 217.398C315.828 217.567 315.685 217.714 315.518 217.828C315.351 217.942 315.163 218.023 314.965 218.065C314.767 218.106 314.563 218.109 314.364 218.071L136.497 184.898L157.432 72.6516L292.497 97.843C316.977 102.408 333.237 125.291 328.822 148.965Z" fill="#525252"/>
<path d="M195.422 126.187L182.861 193.535L89.4976 176.122L102.059 108.774C106.683 83.9779 131.333 67.774 157.114 72.5824C182.896 77.3908 200.047 101.391 195.422 126.187Z" fill="#424242"/>
<path d="M238.886 157.67C232.006 156.387 227.467 149.7 228.763 142.756C230.058 135.812 236.702 131.21 243.582 132.494C245.775 132.906 247.82 133.892 249.509 135.35C251.198 136.809 252.47 138.689 253.196 140.799L340.104 157.009L337.756 169.597L250.849 153.388C249.411 155.094 247.546 156.39 245.445 157.142C243.344 157.894 241.081 158.076 238.886 157.67Z" fill="black"/>
<path d="M192.325 127.425L180.086 193.042L92.1345 176.638L104.374 111.021C108.88 86.8624 132.222 70.9489 156.509 75.4788C180.796 80.0086 196.83 103.266 192.325 127.425Z" fill="black"/>
<path d="M241.351 151.311C244.887 151.311 247.754 148.445 247.754 144.908C247.754 141.372 244.887 138.506 241.351 138.506C237.815 138.506 234.948 141.372 234.948 144.908C234.948 148.445 237.815 151.311 241.351 151.311Z" fill="white"/>
<path d="M341.109 156.964L333.432 198.125C333.399 198.302 333.297 198.459 333.148 198.561C332.999 198.663 332.816 198.701 332.639 198.668L312.459 194.904C312.424 194.898 312.393 194.878 312.372 194.848C312.352 194.819 312.345 194.783 312.351 194.748L320.128 153.051C320.135 153.016 320.155 152.985 320.184 152.965C320.214 152.945 320.25 152.937 320.285 152.943L341.002 156.807C341.037 156.814 341.068 156.834 341.088 156.863C341.108 156.893 341.115 156.929 341.109 156.964Z" fill="#424242"/>
<path d="M121.24 153.091C122.09 159.343 128.949 166.773 128.949 166.773C118.497 167.514 112.836 161.603 110.4 158.011C107.388 158.881 104.293 159.43 101.166 159.649C79.7066 161.17 61.2332 147.16 59.8991 128.341C58.565 109.522 74.8777 93.0458 96.3371 91.5251C117.796 90.0043 136.269 104.014 137.602 122.833C138.47 135.074 131.865 146.326 121.24 153.091Z" fill="white"/>
<path d="M182.951 193.577C181.979 196.036 164.208 269.313 106.701 258.587C43.64 247.911 89.2532 176.101 89.2532 176.101L182.951 193.577Z" fill="#525252"/>
<path d="M98.7501 132.043C101.697 132.043 104.086 129.654 104.086 126.708C104.086 123.761 101.697 121.372 98.7501 121.372C95.8034 121.372 93.4146 123.761 93.4146 126.708C93.4146 129.654 95.8034 132.043 98.7501 132.043Z" fill="#424242"/>
<path d="M74.8641 129.716C77.8286 129.716 80.2318 127.313 80.2318 124.349C80.2318 121.384 77.8286 118.981 74.8641 118.981C71.8996 118.981 69.4963 121.384 69.4963 124.349C69.4963 127.313 71.8996 129.716 74.8641 129.716Z" fill="#424242"/>
<path d="M122.408 134.317C125.373 134.317 127.776 131.914 127.776 128.949C127.776 125.985 125.373 123.582 122.408 123.582C119.443 123.582 117.04 125.985 117.04 128.949C117.04 131.914 119.443 134.317 122.408 134.317Z" fill="#424242"/>
<path d="M238.399 203.908L234.12 226.882L200.563 203.079L201.682 197.068L238.399 203.908Z" fill="black"/>
</svg>
