<svg width="247" height="63" viewBox="0 0 247 63" fill="none" xmlns="http://www.w3.org/2000/svg">
<path d="M0.96 63C0.72 63 0.6 62.85 0.6 62.55L0.69 0.719997C0.69 0.479997 0.84 0.359996 1.14 0.359996H11.13C11.43 0.359996 11.58 0.479997 11.58 0.719997L11.49 25.2H24.99V0.719997C24.99 0.479997 25.11 0.359996 25.35 0.359996H35.34C35.64 0.359996 35.79 0.479997 35.79 0.719997L35.97 62.55C35.97 62.85 35.82 63 35.52 63H25.44C25.14 63 24.99 62.85 24.99 62.55V36.09H11.49V62.55C11.49 62.85 11.37 63 11.13 63H0.96ZM40.2548 62.55L51.4148 0.719997C51.4748 0.479997 51.6248 0.359996 51.8648 0.359996H64.9148C65.1548 0.359996 65.3048 0.479997 65.3648 0.719997L76.0748 62.55C76.1348 62.85 76.0148 63 75.7148 63H65.7248C65.4848 63 65.3348 62.85 65.2748 62.55L64.2848 55.98H52.0448L51.0548 62.55C50.9948 62.85 50.8448 63 50.6048 63H40.6148C40.3748 63 40.2548 62.85 40.2548 62.55ZM53.8448 46.35H62.4848L58.7948 21.06L58.2548 17.73L57.8948 21.06L53.8448 46.35ZM82.083 63C81.843 63 81.723 62.85 81.723 62.55L81.903 0.719997C81.903 0.479997 82.023 0.359996 82.263 0.359996H93.243C93.483 0.359996 93.693 0.479997 93.873 0.719997L102.063 12.6L110.253 0.719997C110.433 0.479997 110.643 0.359996 110.883 0.359996H121.953C122.193 0.359996 122.313 0.479997 122.313 0.719997L122.493 62.55C122.493 62.85 122.373 63 122.133 63H111.963C111.723 63 111.603 62.85 111.603 62.55L111.513 16.65L102.063 30.33L92.703 16.65L92.613 62.55C92.613 62.85 92.493 63 92.253 63H82.083ZM130.513 63C130.213 63 130.063 62.85 130.063 62.55L130.243 0.719997C130.243 0.479997 130.363 0.359996 130.603 0.359996H147.883C153.403 0.359996 157.753 2.04 160.933 5.4C164.173 8.76 165.793 13.32 165.793 19.08C165.793 23.34 164.953 27.03 163.273 30.15C161.593 33.27 159.403 35.67 156.703 37.35C154.003 39.03 151.063 39.87 147.883 39.87H141.043V62.55C141.043 62.85 140.893 63 140.593 63H130.513ZM141.043 28.98H147.883C149.803 28.98 151.453 28.08 152.833 26.28C154.273 24.42 154.993 22.02 154.993 19.08C154.993 16.74 154.363 14.82 153.103 13.32C151.843 11.82 150.103 11.07 147.883 11.07L141.043 11.16V28.98ZM172.259 63C172.019 63 171.899 62.85 171.899 62.55L171.989 0.719997C171.989 0.479997 172.109 0.359996 172.349 0.359996H201.239C201.479 0.359996 201.599 0.509996 201.599 0.809996V10.89C201.599 11.13 201.479 11.25 201.239 11.25H182.789V25.29H201.239C201.479 25.29 201.599 25.41 201.599 25.65L201.689 35.82C201.689 36.06 201.569 36.18 201.329 36.18H182.789V51.93H201.329C201.569 51.93 201.689 52.08 201.689 52.38V62.64C201.689 62.88 201.569 63 201.329 63H172.259ZM210.052 63C209.812 63 209.692 62.85 209.692 62.55L209.872 0.719997C209.872 0.479997 209.992 0.359996 210.232 0.359996H228.412C231.652 0.359996 234.622 1.17 237.322 2.79C240.082 4.35 242.272 6.48 243.892 9.18C245.512 11.82 246.322 14.82 246.322 18.18C246.322 20.4 245.992 22.41 245.332 24.21C244.672 25.95 243.892 27.45 242.992 28.71C242.092 29.91 241.282 30.81 240.562 31.41C243.802 35.01 245.422 39.24 245.422 44.1L245.512 62.55C245.512 62.85 245.362 63 245.062 63H234.892C234.652 63 234.532 62.91 234.532 62.73V44.1C234.532 41.94 233.752 40.08 232.192 38.52C230.692 36.9 228.832 36.09 226.612 36.09H220.672L220.582 62.55C220.582 62.85 220.462 63 220.222 63H210.052ZM220.672 25.29H228.412C230.272 25.29 231.922 24.6 233.362 23.22C234.802 21.84 235.522 20.16 235.522 18.18C235.522 16.26 234.802 14.61 233.362 13.23C231.982 11.85 230.332 11.16 228.412 11.16H220.672V25.29Z" fill="#1E1E1E"/>
</svg>
